<?xml version="1.0" encoding="UTF-8" standalone="no"?>
<!DOCTYPE svg PUBLIC "-//W3C//DTD SVG 1.1//EN" "http://www.w3.org/Graphics/SVG/1.1/DTD/svg11.dtd">
<svg width="100%" height="100%" viewBox="0 0 1080 1080" version="1.1" xmlns="http://www.w3.org/2000/svg" xmlns:xlink="http://www.w3.org/1999/xlink" xml:space="preserve" xmlns:serif="http://www.serif.com/" style="fill-rule:evenodd;clip-rule:evenodd;stroke-linejoin:round;stroke-miterlimit:2;">
    <g transform="matrix(1,0,0,1,-1130,0)">
        <rect id="画板2" x="1130" y="0" width="1080" height="1080" style="fill:none;"/>
        <g id="画板21" serif:id="画板2">
            <g transform="matrix(4.0031,0,0,4.0031,725.269,-1873.87)">
                <rect x="101.104" y="468.104" width="269.791" height="269.791" style="fill:rgb(255,254,255);"/>
            </g>
            <g transform="matrix(3.10893,0,0,3.10893,272.464,-653.551)">
                <path d="M370.177,327.88C381.41,322.242 431.173,370.201 435.817,374.676C474.732,307.78 549.897,303.61 548.474,431.561C550.858,426.084 580.067,358.985 595.6,373.648C609.78,387.035 574.727,388.457 546.142,496.298C546.142,496.298 544.094,503.397 536.647,502.988C528.411,501.725 528.414,494.193 528.414,494.193C528.289,488.397 535.6,421.427 523.747,376.453C515.229,344.131 481.904,326.576 448.891,388.158C482.072,425.211 469.479,450.236 455.854,455.087C439.919,460.761 402.334,448.849 427.275,391.529C423.841,388.084 408.945,373.14 381.093,351.987C375.708,391.516 361.935,495.187 361.935,495.187C361.317,499.837 357.237,503.235 352.552,503.002C345.426,502.647 344.157,495.257 343.992,494.294C337.905,458.858 341.777,433.905 305.05,390.194C292.765,375.573 306.787,369.615 314.018,374.216C321.96,379.269 340.45,401.383 351.525,436.788C355.885,404.1 359.809,371.35 364.719,338.74C366.072,329.752 369.292,328.284 370.177,327.88ZM440.747,406.369C440.198,407.902 436.214,419.039 436.385,426.248C436.738,441.097 450.141,441.639 452.288,434.364C455.43,423.72 441.919,407.826 440.747,406.369ZM349.072,289.972C345.359,287.876 344.045,283.16 346.141,279.447C348.236,275.733 352.952,274.42 356.666,276.515C365.083,281.265 371.819,286.747 376.826,291.544C377.268,290.046 377.761,288.506 378.31,286.956C380.983,279.41 385.033,271.739 390.539,266.787C393.709,263.936 398.597,264.194 401.449,267.364C404.301,270.534 404.042,275.423 400.872,278.275C397.141,281.631 394.686,287 392.875,292.114C389.812,300.76 388.814,309.012 388.814,309.012C388.43,312.217 386.094,314.845 382.956,315.603C379.819,316.36 376.541,315.087 374.737,312.411C374.737,312.411 365.919,299.478 349.072,289.972ZM386.135,399.787C388.776,399.787 390.92,401.931 390.92,404.572C390.92,407.213 388.776,409.357 386.135,409.357C383.495,409.357 381.35,407.213 381.35,404.572C381.35,401.931 383.495,399.787 386.135,399.787ZM410.6,390.217C413.241,390.217 415.385,392.361 415.385,395.002C415.385,397.643 413.241,399.787 410.6,399.787C407.959,399.787 405.815,397.643 405.815,395.002C405.815,392.361 407.959,390.217 410.6,390.217ZM473.693,385.623C476.334,385.623 478.478,387.767 478.478,390.408C478.478,393.049 476.334,395.193 473.693,395.193C471.052,395.193 468.908,393.049 468.908,390.408C468.908,387.767 471.052,385.623 473.693,385.623ZM502.02,395.193C504.661,395.193 506.805,397.337 506.805,399.978C506.805,402.619 504.661,404.763 502.02,404.763C499.379,404.763 497.235,402.619 497.235,399.978C497.235,397.337 499.379,395.193 502.02,395.193Z" style="fill:rgb(55,71,79);"/>
            </g>
        </g>
    </g>
</svg>
